<svg
   xmlns="http://www.w3.org/2000/svg"
   xml:space="preserve"
   viewBox="0 2.4 48 48"
   height="48"
   width="48"
   version="1.1">
   <g transform="matrix(0.07843137,0,0,0.07843123,0,2.4000812)">
			<path stroke="#666666" fill="#666666"
   d="M 581.4,520.199 H 30.6 c -16.891,0 -30.6,13.709 -30.6,30.6 0,16.892 13.709,30.601 30.6,30.601 h 550.8 c 16.891,0 30.6,-13.709 30.6,-30.602 0,-16.89 -13.709,-30.599 -30.6,-30.599 z M 30.6,91.799 h 550.8 c 16.891,0 30.6,-13.708 30.6,-30.6 0,-16.892 -13.709,-30.6 -30.6,-30.6 H 30.6 C 13.709,30.6 0,44.308 0,61.2 0,78.091 13.709,91.799 30.6,91.799 Z m 550.8,183.6 H 30.6 C 13.709,275.399 0,289.108 0,306 c 0,16.892 13.709,30.6 30.6,30.6 h 550.8 c 16.891,0 30.6,-13.709 30.6,-30.6 0,-16.891 -13.709,-30.601 -30.6,-30.601 z" />
   </g>
</svg>