<?xml version="1.0" encoding="UTF-8" standalone="no"?>
<!-- Created with Inkscape (http://www.inkscape.org/) -->

<svg
   xmlns:dc="http://purl.org/dc/elements/1.1/"
   xmlns:cc="http://creativecommons.org/ns#"
   xmlns:rdf="http://www.w3.org/1999/02/22-rdf-syntax-ns#"
   xmlns:svg="http://www.w3.org/2000/svg"
   xmlns="http://www.w3.org/2000/svg"
   xmlns:sodipodi="http://sodipodi.sourceforge.net/DTD/sodipodi-0.dtd"
   xmlns:inkscape="http://www.inkscape.org/namespaces/inkscape"
   width="316.38086mm"
   height="13.631mm"
   viewBox="0 0 316.38086 13.630999"
   version="1.1"
   id="svg3883"
   sodipodi:docname="text-innovating.svg"
   inkscape:version="0.92.4 (5da689c313, 2019-01-14)">
  <defs
     id="defs3877" />
  <sodipodi:namedview
     id="base"
     pagecolor="#ffffff"
     bordercolor="#666666"
     borderopacity="1.0"
     inkscape:pageopacity="0"
     inkscape:pageshadow="2"
     inkscape:zoom="0.35"
     inkscape:cx="2027.8028"
     inkscape:cy="-96.02774"
     inkscape:document-units="mm"
     inkscape:current-layer="layer1"
     showgrid="false"
     inkscape:window-width="1920"
     inkscape:window-height="1001"
     inkscape:window-x="-9"
     inkscape:window-y="-9"
     inkscape:window-maximized="1"
     fit-margin-top="0"
     fit-margin-left="0"
     fit-margin-right="0"
     fit-margin-bottom="0"
     inkscape:pagecheckerboard="true" />
  <metadata
     id="metadata3880">
    <rdf:RDF>
      <cc:Work
         rdf:about="">
        <dc:format>image/svg+xml</dc:format>
        <dc:type
           rdf:resource="http://purl.org/dc/dcmitype/StillImage" />
        <dc:title></dc:title>
      </cc:Work>
    </rdf:RDF>
  </metadata>
  <g
     inkscape:label="Layer 1"
     inkscape:groupmode="layer"
     id="layer1"
     transform="translate(337.72235,-179.00843)">
    <path
       style="color:#000000;font-style:normal;font-variant:normal;font-weight:normal;font-stretch:normal;font-size:17.41599083px;line-height:1.25;font-family:Chandas;-inkscape-font-specification:'Chandas, Normal';font-variant-ligatures:normal;font-variant-position:normal;font-variant-caps:normal;font-variant-numeric:normal;font-variant-alternates:normal;font-feature-settings:normal;text-indent:0;text-align:start;text-decoration:none;text-decoration-line:none;text-decoration-style:solid;text-decoration-color:#000000;letter-spacing:0px;word-spacing:0px;text-transform:none;writing-mode:lr-tb;direction:ltr;text-orientation:mixed;dominant-baseline:auto;baseline-shift:baseline;text-anchor:start;white-space:normal;shape-padding:0;clip-rule:nonzero;display:inline;overflow:visible;visibility:visible;opacity:1;isolation:auto;mix-blend-mode:normal;color-interpolation:sRGB;color-interpolation-filters:linearRGB;solid-color:#000000;solid-opacity:1;vector-effect:none;fill:#ffffff;fill-opacity:1;fill-rule:nonzero;stroke:none;stroke-width:0.45041788;stroke-linecap:butt;stroke-linejoin:miter;stroke-miterlimit:4;stroke-dasharray:none;stroke-dashoffset:0;stroke-opacity:1;color-rendering:auto;image-rendering:auto;shape-rendering:auto;text-rendering:auto;enable-background:accumulate"
       d="m -294.97821,179.00852 c -1.84185,0 -3.34574,0.63015 -4.45312,1.8789 -1.10702,1.23727 -1.65625,2.89922 -1.65625,4.94531 0,2.04679 0.54848,3.70987 1.65625,4.94727 1.10765,1.23727 2.61175,1.85937 4.45312,1.85937 1.81934,0 3.31281,-0.6227 4.41993,-1.85937 v -0.002 h 0.002 c 1.10711,-1.24844 1.6543,-2.91611 1.6543,-4.96289 0,-2.03459 -0.54796,-3.69081 -1.6543,-4.92774 l -0.002,-0.002 c -1.10667,-1.24674 -2.60114,-1.87694 -4.41993,-1.87694 z m 73.64454,0 c -2.02844,0 -3.65382,0.60464 -4.82228,1.82031 -1.15754,1.20479 -1.73046,2.88229 -1.73046,4.98633 0,2.11515 0.57142,3.8034 1.72851,5.01953 l 0.002,0.002 c 1.1687,1.20412 2.79427,1.80274 4.82228,1.80273 0.92678,0 1.79891,-0.12033 2.61522,-0.36523 l 0.002,-0.002 c 0.82598,-0.25594 1.58521,-0.6233 2.27345,-1.10156 l 0.0977,-0.0664 v -5.80274 h -4.97462 v 1.86133 h 2.82226 v 3.02539 c -0.33756,0.18472 -0.70163,0.3352 -1.11523,0.42383 -0.45688,0.0979 -0.98422,0.14844 -1.58398,0.14844 -1.5001,0 -2.58745,-0.41154 -3.32032,-1.21875 -0.73212,-0.80641 -1.11523,-2.03718 -1.11523,-3.72656 0,-1.67782 0.38277,-2.90222 1.11523,-3.70899 0.73328,-0.8183 1.82078,-1.23633 3.32032,-1.23633 0.76795,0 1.49324,0.13229 2.18163,0.39453 0.6884,0.26225 1.33968,0.65639 1.95704,1.18555 l 0.3711,0.31836 v -2.45117 l -0.10571,-0.0664 c -0.65396,-0.40872 -1.36627,-0.71814 -2.13477,-0.92773 -0.7579,-0.20988 -1.56002,-0.31445 -2.40624,-0.31445 z m 34.2539,0 c -1.84186,0 -3.34771,0.63015 -4.45508,1.8789 -1.10658,1.2372 -1.6543,2.89962 -1.6543,4.94531 0,2.04679 0.54848,3.70987 1.65626,4.94727 1.10763,1.23727 2.61173,1.85937 4.45312,1.85937 1.81933,0 3.3128,-0.6227 4.41992,-1.85937 v -0.002 c 1.10711,-1.24844 1.65625,-2.91611 1.65625,-4.96289 0,-2.03499 -0.54948,-3.69074 -1.65625,-4.92774 -1.10685,-1.24814 -2.6001,-1.87889 -4.41992,-1.87889 z m 78.3711,0 c -2.02843,0 -3.65381,0.60464 -4.82227,1.82031 -1.15754,1.20479 -1.72852,2.88229 -1.72852,4.98633 0,2.11515 0.57143,3.8034 1.72852,5.01953 v 0.002 h 0.002 c 1.16871,1.20412 2.79232,1.80274 4.82031,1.80273 0.92678,0 1.80088,-0.12033 2.61719,-0.36523 v -0.002 h 0.002 c 0.82596,-0.25594 1.58323,-0.6233 2.27148,-1.10156 l 0.0977,-0.0664 v -5.80274 h -4.97462 v 1.86133 h 2.82226 v 3.02539 c -0.33752,0.18468 -0.69973,0.33521 -1.11327,0.42383 -0.45688,0.0979 -0.98618,0.14844 -1.58595,0.14844 -1.50009,0 -2.58745,-0.41154 -3.32031,-1.21875 -0.73213,-0.80641 -1.11522,-2.03718 -1.11522,-3.72656 0,-1.67782 0.38277,-2.90222 1.11522,-3.70899 h 0.002 c 0.73329,-0.8183 1.81883,-1.23633 3.31836,-1.23633 0.76796,0 1.49325,0.13229 2.18164,0.39453 0.6884,0.26225 1.33968,0.65639 1.95704,1.18555 l 0.37304,0.31836 v -2.45117 l -0.10581,-0.0664 c -0.65346,-0.40841 -1.36696,-0.71815 -2.13477,-0.92773 h -0.002 c -0.75725,-0.20955 -1.56058,-0.31445 -2.40612,-0.31445 z m 20.919917,0 c -1.42943,0 -2.58005,0.33245 -3.42383,1.01953 l -0.0021,0.002 c -0.831721,0.68707 -1.255861,1.65134 -1.255861,2.82617 0,1.01876 0.304519,1.85062 0.919919,2.44141 0.616212,0.59156 1.585841,0.99594 2.902342,1.25 l 1.035158,0.20312 c 0.851162,0.17687 1.444032,0.43863 1.781252,0.7461 0.337399,0.30763 0.505859,0.71428 0.505859,1.27929 0,0.67054 -0.228489,1.13625 -0.70703,1.48243 -0.479449,0.34683 -1.189371,0.53711 -2.14649,0.53711 -0.622589,0 -1.258589,-0.0987 -1.908199,-0.29688 -0.65218,-0.19897 -1.322401,-0.4881 -2.01367,-0.86719 l -0.333991,-0.18164 v 2.30469 l 0.146489,0.0547 c 0.735772,0.27591 1.449051,0.48434 2.142583,0.62304 0.692808,0.13857 1.348848,0.20703 1.966788,0.20703 1.62855,0 2.887159,-0.3213 3.759771,-1 0.882859,-0.67791 1.330079,-1.69685 1.330079,-2.98242 0,-1.0757 -0.32816,-1.9681 -0.98438,-2.625 -0.646419,-0.65862 -1.636281,-1.10069 -2.95508,-1.35547 h -0.0021 l -1.01953,-0.20507 h -0.0021 c -0.9349,-0.17808 -1.55457,-0.41436 -1.833978,-0.64649 l -0.0021,-0.002 c -0.271452,-0.23496 -0.41407,-0.58125 -0.41407,-1.10352 0,-0.61227 0.211669,-1.0393 0.656259,-1.36328 0.45692,-0.32438 1.133581,-0.50195 2.04492,-0.50195 0.51055,0 1.046181,0.0745 1.60742,0.22851 l 0.0021,0.002 h 0.0021 c 0.560571,0.14289 1.1639,0.36946 1.81055,0.68164 l 0.32422,0.15625 v -2.20507 l -0.1543,-0.0508 c -0.655539,-0.21852 -1.3004,-0.38023 -1.935541,-0.48438 h -0.004 c -0.623422,-0.11525 -1.236842,-0.17382 -1.839611,-0.17382 z m -249.933597,0.2207 v 0.22656 12.92969 h 2.18555 v -13.15625 z m 6.8711,0 v 0.22656 12.92969 h 2.11718 v -9.95313 l 5.28711,9.95313 h 2.67188 v -13.15625 h -2.11719 v 9.94922 l -5.28516,-9.94922 z m 15.23828,0 v 0.22656 12.92969 h 2.11719 v -9.95313 l 5.28711,9.95313 h 2.67382 v -13.15625 h -2.11718 v 9.95312 l -5.28711,-9.95312 z m 27.85937,0 5.01953,13.15625 h 0.15625 2.10938 l 5.00195,-13.15625 h -2.26758 l -3.875,10.2832 -3.85742,-10.2832 z m 17.60547,0 -0.0547,0.14453 -4.96484,13.01172 h 2.28906 l 1.15625,-3.26563 h 5.41407 l 1.15625,3.26563 h 2.27149 l -5.00195,-13.15625 z m 7.48047,0 v 0.22656 1.6875 h 4.50781 v 11.24219 h 2.18555 v -11.24219 h 4.49022 v -1.91406 z m 13.38671,0 v 0.22656 12.92969 h 2.1836 v -13.15625 z m 6.87109,0 v 0.22656 12.92969 h 2.11719 v -9.95117 l 5.28516,9.95117 h 2.67383 v -13.15625 h -2.11718 v 9.95117 l -5.28516,-9.95117 z m 37.85938,0 v 0.22656 12.92969 h 2.18554 v -6.07227 h 5.03322 v -1.8789 h -5.03322 v -3.29102 h 5.57814 v -1.91406 z m 26.36134,0 v 13.15625 h 2.18554 v -5.35742 h 1.64452 c 0.65029,0 1.1362,0.13105 1.47071,0.36718 h 0.002 c 0.33593,0.23036 0.73706,0.77025 1.14844,1.61524 h 0.002 l 1.69531,3.375 h 2.33985 l -1.89844,-3.79688 c -0.3678,-0.72411 -0.73123,-1.29836 -1.09961,-1.72656 l -0.002,-0.002 c -0.26677,-0.31965 -0.57059,-0.4816 -0.87305,-0.64453 0.57248,-0.22909 1.10666,-0.5016 1.43164,-0.96875 0.40369,-0.57569 0.60156,-1.29076 0.60156,-2.11914 0,-1.26836 -0.37973,-2.26522 -1.15039,-2.92579 -0.77155,-0.66132 -1.91153,-0.97265 -3.39453,-0.97265 z m 21.83789,0 v 0.22656 12.92969 h 3.76367 c 2.4804,0 4.34097,-0.51524 5.55664,-1.58789 h 0.002 c 1.21555,-1.08446 1.8086,-2.77004 1.8086,-4.99805 0,-2.21566 -0.59384,-3.89174 -1.8086,-4.96484 -1.2049,-1.0855 -3.06677,-1.60547 -5.55871,-1.60547 z m 13.98047,0 v 13.15625 h 2.18554 v -5.35742 h 1.64649 c 0.65027,0 1.13423,0.13105 1.46874,0.36718 h 0.002 c 0.33594,0.23036 0.73706,0.77025 1.14844,1.61524 h 0.002 l 1.69531,3.375 h 2.33986 l -1.89845,-3.79688 c -0.3678,-0.72411 -0.73122,-1.29836 -1.0996,-1.72656 l -0.002,-0.002 c -0.26696,-0.31987 -0.5684,-0.48355 -0.8711,-0.64649 0.57123,-0.2291 1.10522,-0.50037 1.42969,-0.96679 0.40369,-0.57569 0.60156,-1.29076 0.60156,-2.11914 0,-1.26836 -0.37973,-2.26522 -1.15039,-2.92579 -0.77155,-0.66132 -1.91153,-0.97265 -3.39453,-0.97265 z m 12.94335,0 v 0.22656 7.92383 c 0,1.69245 0.42018,3.01296 1.28711,3.91602 h 0.002 c 0.87826,0.90232 2.16211,1.34374 3.80078,1.34374 1.63866,0 2.91792,-0.44037 3.78515,-1.34374 0.86694,-0.90306 1.28711,-2.22357 1.28711,-3.91602 v -8.15039 h -2.16796 v 7.94726 c 0,1.3331 -0.25173,2.26216 -0.69727,2.79883 l -0.002,0.002 c -0.43536,0.5366 -1.14626,0.81836 -2.20508,0.81836 -1.05882,0 -1.77767,-0.28195 -2.22461,-0.82032 -0.44554,-0.53667 -0.69727,-1.46573 -0.69727,-2.79883 v -7.94727 z m 52.794926,0 -0.0566,0.14453 -4.96289,13.01172 h 2.289062 l 1.15625,-3.26563 h 5.414055 l 1.156255,3.26563 h 2.271475 l -5.001945,-13.15625 z m 9.232429,0 v 0.22656 12.92969 h 2.185538 v -6.07227 h 5.033195 v -1.8789 h -5.033195 v -3.29102 h 5.578131 v -1.91406 z m 12.076166,0 v 0.22656 12.92969 h 8.648436 v -1.89649 h -6.46486 v -4.14257 h 6.03909 v -1.91211 h -6.03909 v -3.29102 h 6.29299 v -1.91406 z m 10.968756,0 v 0.22656 1.6875 h 4.50781 v 11.24219 h 2.18554 v -11.24219 h 4.49024 v -1.91406 z m 11.45312,0 0.23633,0.35156 4.45116,6.60938 v 6.19531 h 2.18554 v -6.19531 l 4.68752,-6.96094 h -2.39649 l -3.3672,5.05859 -3.41796,-5.05859 z m -262.076177,1.625 c 1.19128,0 2.09604,0.42621 2.78321,1.30664 0.68714,0.8804 1.04101,2.08964 1.04101,3.6543 0,1.57623 -0.35414,2.79182 -1.04101,3.67187 -0.68717,0.88043 -1.59193,1.3086 -2.78321,1.3086 -1.19127,0 -2.10024,-0.42926 -2.79882,-1.31055 -0.6977,-0.88017 -1.05664,-2.09421 -1.05664,-3.66992 0,-1.56413 0.35867,-2.77183 1.05664,-3.65235 0.69858,-0.88129 1.60755,-1.30859 2.79882,-1.30859 z m 107.89844,0 c 1.19127,0 2.09409,0.42621 2.78125,1.30664 0.68714,0.8804 1.04101,2.08964 1.04101,3.6543 0,1.57623 -0.35415,2.79182 -1.04101,3.67187 -0.68716,0.88043 -1.58998,1.3086 -2.78125,1.3086 -1.19129,0 -2.1022,-0.42926 -2.80079,-1.31055 -0.69769,-0.88017 -1.05664,-2.09421 -1.05664,-3.66992 0,-1.56413 0.35868,-2.77183 1.05664,-3.65235 0.69859,-0.88129 1.6095,-1.30859 2.80079,-1.30859 z m 11.07617,0.25391 h 1.91797 c 0.80558,0 1.37442,0.17937 1.73828,0.5039 0.36386,0.32453 0.55273,0.80937 0.55273,1.51563 0,0.69241 -0.18974,1.1786 -0.55468,1.51562 -0.36391,0.32389 -0.93159,0.50586 -1.73633,0.50586 h -1.91797 z m 21.83789,0 h 1.84961 c 1.71201,0 2.92867,0.38919 3.6875,1.12695 v 0.002 c 0.75752,0.72595 1.15624,1.89775 1.15624,3.5625 0,1.67633 -0.39789,2.85843 -1.15624,3.5957 -0.75883,0.73776 -1.97549,1.12696 -3.6875,1.12696 h -1.84961 z m 13.98047,0 h 1.91797 c 0.80558,0 1.37442,0.17937 1.73828,0.5039 0.36387,0.32453 0.55274,0.80937 0.55274,1.51563 0,0.69241 -0.18975,1.1786 -0.55469,1.51562 -0.36391,0.32389 -0.93159,0.50586 -1.73633,0.50586 h -1.91797 z m -128.83789,0.69531 2.02149,5.4375 h -4.0293 z m 193.515626,0.002 2.021481,5.43555 h -4.0293 z"
       id="text835"
       inkscape:connector-curvature="0"
       sodipodi:nodetypes="ccscscccsccccccscccccccccccccscscsccccccccccscsccscccccscccccccccccccccscsccsccccccccccccsccccscsccccccscscccccccscsccccccccccccccccccccccccccccccccccccccccccccccccccccccccccccccccccccccccccccccccccccccccccccccccccccccccscccccccccccsccccccsccscscccccscccccccccccscccccsccscsccsccscscccccccccccccccccccccccccccccccccccccccccccccccccccccccccccscscscsssscscscscscscscscccsccscscccscscscccccccccc" />
  </g>
</svg>
