<?xml version="1.0" encoding="UTF-8" standalone="no"?>
<svg
   xmlns:dc="http://purl.org/dc/elements/1.1/"
   xmlns:cc="http://creativecommons.org/ns#"
   xmlns:rdf="http://www.w3.org/1999/02/22-rdf-syntax-ns#"
   xmlns:svg="http://www.w3.org/2000/svg"
   xmlns="http://www.w3.org/2000/svg"
   id="svg3883"
   version="1.1"
   viewBox="0 0 31.406515 37.356193"
   height="37.356194mm"
   width="31.406515mm">
  <defs
     id="defs3877" />
  <metadata
     id="metadata3880">
    <rdf:RDF>
      <cc:Work
         rdf:about="">
        <dc:format>image/svg+xml</dc:format>
        <dc:type
           rdf:resource="http://purl.org/dc/dcmitype/StillImage" />
        <dc:title></dc:title>
      </cc:Work>
    </rdf:RDF>
  </metadata>
  <g
     transform="translate(-20.103056,1.3894309)"
     id="layer1">
    <path
       id="path4721"
       d="m 46.577217,-1.3891968 c -0.545401,-0.009 -0.906961,0.24453 -0.906961,0.24453 l -1.40809,1.40808998 2.918351,2.91818002 1.40793,-1.4080801 c 0,0 0.79825,-1.14270992 -0.48863,-2.42955992 -0.563002,-0.56300998 -1.098402,-0.72690998 -1.5226,-0.73315998 z M 42.792726,-1.7681563e-4 27.657296,15.135393 l 4.65109,4.65124 5.87421,-5.8742 c -0.64569,-0.66319 -1.04501,-1.56717 -1.04501,-2.56123 0,-2.0236998 1.65282,-3.6766698 3.67652,-3.6766698 0.99404,0 1.89818,0.39933 2.56137,1.04502 l 4.068481,-4.06851 z M 40.814106,8.7462032 c -1.43867,4e-5 -2.60491,1.16633 -2.60486,2.6049998 3e-5,1.43861 1.16625,2.60482 2.60486,2.60485 1.43866,4e-5 2.60496,-1.16618 2.60499,-2.60485 6e-5,-1.4387098 -1.16626,-2.6050298 -2.60499,-2.6049998 z m 3.62901,3.2176898 c 0.004,0.8737 -0.54204,1.97292 -1.585,2.58443 6.3024,5.02351 2.44551,13.651841 -3.24859,16.89736 l 5.12145,4.384961 c 8.19981,-4.73416 9.94375,-17.959551 -0.28786,-23.866751 z m -16.51001,4.1075 -0.94121,0.94121 3.43928,3.43928 0.94121,-0.94122 z m -0.64633,1.72529 -0.62266,0.62266 2.27529,2.27513 0.62251,-0.62266 z m -7.18372,6.76052 v 2.777699 h 5.70609 l 5.56056,3.751292 7.37642,0.0218 -8.04435,-3.77317 v -2.777673 z m 11.60978,7.024601 -2.02613,4.38496 h 14.54046 l -5.12144,-4.38496 z"
       style="display:inline;fill:#ffffff;fill-opacity:1;stroke:none;stroke-width:0.07624973;stroke-opacity:1" />
  </g>
</svg>
