<?xml version="1.0" encoding="UTF-8" standalone="no"?>
<!-- Created with Inkscape (http://www.inkscape.org/) -->

<svg
   xmlns:dc="http://purl.org/dc/elements/1.1/"
   xmlns:cc="http://creativecommons.org/ns#"
   xmlns:rdf="http://www.w3.org/1999/02/22-rdf-syntax-ns#"
   xmlns:svg="http://www.w3.org/2000/svg"
   xmlns="http://www.w3.org/2000/svg"
   xmlns:sodipodi="http://sodipodi.sourceforge.net/DTD/sodipodi-0.dtd"
   xmlns:inkscape="http://www.inkscape.org/namespaces/inkscape"
   width="25.986504mm"
   height="31.806mm"
   viewBox="0 0 25.986504 31.805999"
   version="1.1"
   id="svg3883"
   inkscape:version="0.92.4 (5da689c313, 2019-01-14)"
   sodipodi:docname="icon-flask.svg">
  <defs
     id="defs3877" />
  <sodipodi:namedview
     id="base"
     pagecolor="#ffffff"
     bordercolor="#666666"
     borderopacity="1.0"
     inkscape:pageopacity="0"
     inkscape:pageshadow="2"
     inkscape:zoom="0.35"
     inkscape:cx="748.8886"
     inkscape:cy="-685.94271"
     inkscape:document-units="mm"
     inkscape:current-layer="layer1"
     showgrid="false"
     inkscape:window-width="1920"
     inkscape:window-height="1001"
     inkscape:window-x="-9"
     inkscape:window-y="-9"
     inkscape:window-maximized="1"
     fit-margin-top="0"
     fit-margin-left="0"
     fit-margin-right="0"
     fit-margin-bottom="0"
     inkscape:pagecheckerboard="true" />
  <metadata
     id="metadata3880">
    <rdf:RDF>
      <cc:Work
         rdf:about="">
        <dc:format>image/svg+xml</dc:format>
        <dc:type
           rdf:resource="http://purl.org/dc/dcmitype/StillImage" />
        <dc:title></dc:title>
      </cc:Work>
    </rdf:RDF>
  </metadata>
  <g
     inkscape:label="Layer 1"
     inkscape:groupmode="layer"
     id="layer1"
     transform="translate(-29.788376,1.1029045)">
    <path
       style="display:inline;fill:#ffffff;fill-opacity:1;stroke:none;stroke-width:0.45906955px;stroke-linecap:butt;stroke-linejoin:miter;stroke-opacity:1"
       d="m 34.84779,-1.1029045 v 3.8131599 l 0.62638,0.1889302 c 1.22605,0.36957 1.78659,0.89911 2.02226,1.7417198 0.23563,0.8426101 0.0768,2.1767502 -0.71799,3.9911603 l -0.004,0.010901 -6.48547,15.9157293 c -0.53786,1.278859 -0.68312,2.65687 -0.23394,3.85843 0.44915,1.201579 1.60629,2.138749 3.16987,2.28197 l 0.0393,0.004 h 19.03463 l 0.0404,-0.004 c 1.563561,-0.143221 2.71991,-1.080391 3.169081,-2.28197 0.44919,-1.20156 0.30367,-2.579561 -0.23419,-3.85843 L 48.78967,8.6429667 48.78467,8.6320657 C 47.98986,6.8176556 47.83104,5.4835155 48.06668,4.6409055 c 0.23567,-0.8426099 0.79621,-1.37242 2.02227,-1.7419799 l 0.62637,-0.1886702 v -3.8131599 z m 1.76229,1.76255006 H 48.95283 V 1.4710255 c -1.27235,0.5423 -2.23465,1.44714 -2.58384,2.69574 -0.40618,1.4524 -0.0808,3.1582201 0.80151,5.17261 l 6.47766,15.8980395 0.002,0.004 c 0.40034,0.95185 0.44748,1.915859 0.20742,2.558069 -0.23913,0.63967 -0.65473,1.044872 -1.67095,1.140841 H 33.37636 c -1.01623,-0.096 -1.43105,-0.501171 -1.67015,-1.140841 -0.24008,-0.64221 -0.19295,-1.606219 0.20738,-2.558069 l 0.002,-0.004 6.47766,-15.8980395 c 0.88243,-2.0143899 1.20693,-3.72021 0.80074,-5.17261 -0.34931,-1.24899 -1.31087,-2.15455 -2.58383,-2.69678 z M 41.18442,11.195605 a 1.3323824,1.3323824 0 0 0 -1.33239,1.33239 1.3323824,1.3323824 0 0 0 1.33239,1.33237 1.3323824,1.3323824 0 0 0 1.33238,-1.33237 1.3323824,1.3323824 0 0 0 -1.33238,-1.33239 z m 2.93123,0.99928 a 0.79942944,0.79942944 0 0 0 -0.79942,0.79944 0.79942944,0.79942944 0 0 0 0.79942,0.79942 0.79942944,0.79942944 0 0 0 0.79943,-0.79942 0.79942944,0.79942944 0 0 0 -0.79943,-0.79944 z m -6.26558,2.64083 -3.82539,9.03027 c -0.70345,1.7427 -1.88493,3.65867 0.39816,3.84387 h 16.7167 c 2.28307,-0.18523 1.10286,-2.10117 0.39945,-3.84387 l -3.82539,-9.03027 z m 3.13449,3.08841 a 1.2657631,1.2657631 0 0 1 1.26576,1.26576 1.2657631,1.2657631 0 0 1 -1.26576,1.26577 1.2657631,1.2657631 0 0 1 -1.26576,-1.26577 1.2657631,1.2657631 0 0 1 1.26576,-1.26576 z m -2.66478,3.53081 a 2.2650499,2.2650499 0 0 1 2.26506,2.26506 2.2650499,2.2650499 0 0 1 -2.26506,2.265041 2.2650499,2.2650499 0 0 1 -2.26504,-2.265041 2.2650499,2.2650499 0 0 1 2.26504,-2.26506 z m 4.72997,0.79944 a 0.73281024,0.73281024 0 0 1 0.73281,0.7328 0.73281024,0.73281024 0 0 1 -0.73281,0.73282 0.73281024,0.73281024 0 0 1 -0.73281,-0.73282 0.73281024,0.73281024 0 0 1 0.73281,-0.7328 z"
       id="path902"
       inkscape:connector-curvature="0"
       inkscape:export-filename="/media/sele/MY_EXTERNAL/K_trenutno/DNA_siteHeder/ikone/boca.png"
       inkscape:export-xdpi="246.11685"
       inkscape:export-ydpi="246.11685" />
  </g>
</svg>
