<?xml version="1.0" encoding="UTF-8" standalone="no"?>
<svg
   xmlns:dc="http://purl.org/dc/elements/1.1/"
   xmlns:cc="http://creativecommons.org/ns#"
   xmlns:rdf="http://www.w3.org/1999/02/22-rdf-syntax-ns#"
   xmlns:svg="http://www.w3.org/2000/svg"
   xmlns="http://www.w3.org/2000/svg"
   id="svg3883"
   version="1.1"
   viewBox="0 0 14.88334 32.154651"
   height="32.154652mm"
   width="14.88334mm">
  <defs
     id="defs3877" />
  <metadata
     id="metadata3880">
    <rdf:RDF>
      <cc:Work
         rdf:about="">
        <dc:format>image/svg+xml</dc:format>
        <dc:type
           rdf:resource="http://purl.org/dc/dcmitype/StillImage" />
        <dc:title></dc:title>
      </cc:Work>
    </rdf:RDF>
  </metadata>
  <g
     transform="translate(183.31168,-165.76452)"
     id="layer1">
    <path
       id="path852"
       d="m -175.86974,197.91917 c -4.10981,-1e-5 -7.44144,-3.33209 -7.44141,-7.44192 v -0.0119 -8.02535 -9.22218 l -5.3e-4,-0.0119 c 0,-4.10966 3.33183,-7.44111 7.44141,-7.4414 h 5.2e-4 c 4.10958,2.6e-4 7.44145,3.33176 7.44141,7.4414 l -0.001,0.0119 h 0.001 v 9.61285 7.63468 h -5.2e-4 l 5.2e-4,0.0119 c 0,4.10983 -3.3316,7.44191 -7.4414,7.44192 z m -5.92574,-16.66461 h 11.85147 v -7.97833 -0.01 c 3e-5,-3.27289 -2.65286,-5.92626 -5.92573,-5.92626 -3.27286,0 -5.92629,2.65337 -5.92625,5.92626 l 5.2e-4,0.01 z m 0.69557,0.1173 v -7.82639 h 5.2e-4 l -5.2e-4,-0.009 c -2e-5,-2.40065 1.56132,-4.43525 3.72328,-5.148 l 0.0837,-0.0269 c 0.4322,-0.1347 0.88695,-0.21835 1.35806,-0.2403 v 0.7152 c -2.26507,0.13261 -4.06127,2.44556 -4.06126,4.7439 l 5.2e-4,0.007 h -5.2e-4 v 7.76954 z"
       style="display:inline;fill:#ffffff;fill-opacity:1;stroke:none;stroke-width:0.70191109;stroke-miterlimit:3.79999995;stroke-dasharray:none;stroke-opacity:1" />
  </g>
</svg>
