<?xml version="1.0" encoding="UTF-8" standalone="no"?>
<svg
   xmlns:dc="http://purl.org/dc/elements/1.1/"
   xmlns:cc="http://creativecommons.org/ns#"
   xmlns:rdf="http://www.w3.org/1999/02/22-rdf-syntax-ns#"
   xmlns:svg="http://www.w3.org/2000/svg"
   xmlns="http://www.w3.org/2000/svg"
   id="svg3883"
   version="1.1"
   viewBox="0 0 32.510979 32.521339"
   height="32.521339mm"
   width="32.510979mm">
  <defs
     id="defs3877" />
  <metadata
     id="metadata3880">
    <rdf:RDF>
      <cc:Work
         rdf:about="">
        <dc:format>image/svg+xml</dc:format>
        <dc:type
           rdf:resource="http://purl.org/dc/dcmitype/StillImage" />
        <dc:title></dc:title>
      </cc:Work>
    </rdf:RDF>
  </metadata>
  <g
     transform="translate(-19.931313,-5.9339939)"
     id="layer1">
    <path
       id="path4719"
       d="m 22.903654,8.9060752 c -3.963121,3.9631398 -3.963121,10.4330508 0,14.3961808 3.96314,3.96314 10.43257,3.96266 14.3957,-4.5e-4 3.96314,-3.96314 3.96313,-10.432071 0,-14.3952107 -3.96313,-3.9631402 -10.43256,-3.9636302 -14.3957,-5.003e-4 z m 2.06046,2.0604498 c 2.8496,-2.8495799 7.42521,-2.8491099 10.27478,5.03e-4 2.8496,2.8496 2.8496,7.424701 0,10.274291 -2.84957,2.84958 -7.42518,2.85008 -10.27478,4.49e-4 -2.84959,-2.84959 -2.84958,-7.42569 0,-10.27526 z m 12.21683,14.920831 9.93048,12.53079 c 0,0 2.13687,0.391231 3.89227,-1.3642 1.75542,-1.75541 1.4113,-3.939381 1.4113,-3.939381 l -12.53078,-9.930469 c -0.35207,0.52333 -0.75743,1.02111 -1.2195,1.48317 -0.46229,0.46227 -0.96015,0.8679 -1.48377,1.22009 z"
       style="color:#000000;font-style:normal;font-variant:normal;font-weight:normal;font-stretch:normal;font-size:medium;line-height:normal;font-family:sans-serif;font-variant-ligatures:normal;font-variant-position:normal;font-variant-caps:normal;font-variant-numeric:normal;font-variant-alternates:normal;font-feature-settings:normal;text-indent:0;text-align:start;text-decoration:none;text-decoration-line:none;text-decoration-style:solid;text-decoration-color:#000000;letter-spacing:normal;word-spacing:normal;text-transform:none;writing-mode:lr-tb;direction:ltr;text-orientation:mixed;dominant-baseline:auto;baseline-shift:baseline;text-anchor:start;white-space:normal;shape-padding:0;clip-rule:nonzero;display:inline;overflow:visible;visibility:visible;opacity:1;isolation:auto;mix-blend-mode:normal;color-interpolation:sRGB;color-interpolation-filters:linearRGB;solid-color:#000000;solid-opacity:1;vector-effect:none;fill:#ffffff;fill-opacity:1;fill-rule:nonzero;stroke:none;stroke-width:2.91390491;stroke-linecap:butt;stroke-linejoin:miter;stroke-miterlimit:3.79999995;stroke-dasharray:none;stroke-dashoffset:0;stroke-opacity:1;color-rendering:auto;image-rendering:auto;shape-rendering:auto;text-rendering:auto;enable-background:accumulate" />
  </g>
</svg>
